<svg xmlns="http://www.w3.org/2000/svg" width="1400" height="420" viewBox="0 0 1400 420">
<rect width="1400" height="420" fill="white"/>
<text x="700" y="48" text-anchor="middle" font-family="Arial, sans-serif" font-size="28" font-weight="700">JAK2 V617F: Sequence-to-Protein Consequence</text>
<text x="700" y="78" text-anchor="middle" font-family="Arial, sans-serif" font-size="15">NM_004972.4:c.1849G&gt;T → p.Val617Phe</text>
<g font-family="Arial, sans-serif" text-anchor="middle">
<rect x="55" y="145" width="205" height="115" rx="16" fill="#f4f7fb" stroke="#4b6584" stroke-width="2"/>
<text x="157" y="178" font-size="16" font-weight="700">REFERENCE</text><text x="157" y="215" font-size="30" font-family="monospace">GTT</text><text x="157" y="242" font-size="14">Valine (V)</text>
<line x1="275" y1="202" x2="330" y2="202" stroke="#333" stroke-width="3"/><polygon points="330,202 316,194 316,210" fill="#333"/>
<rect x="345" y="145" width="205" height="115" rx="16" fill="#f7f7f7" stroke="#555" stroke-width="2"/>
<text x="447" y="178" font-size="16" font-weight="700">SUBSTITUTION</text><text x="447" y="215" font-size="27" font-family="monospace">G → T</text><text x="447" y="242" font-size="14">c.1849</text>
<line x1="565" y1="202" x2="620" y2="202" stroke="#333" stroke-width="3"/><polygon points="620,202 606,194 606,210" fill="#333"/>
<rect x="635" y="145" width="205" height="115" rx="16" fill="#f4f7fb" stroke="#4b6584" stroke-width="2"/>
<text x="737" y="178" font-size="16" font-weight="700">VARIANT</text><text x="737" y="215" font-size="30" font-family="monospace">TTT</text><text x="737" y="242" font-size="14">Phenylalanine (F)</text>
<line x1="855" y1="202" x2="910" y2="202" stroke="#333" stroke-width="3"/><polygon points="910,202 896,194 896,210" fill="#333"/>
<rect x="925" y="145" width="205" height="115" rx="16" fill="#f4f7fb" stroke="#4b6584" stroke-width="2"/>
<text x="1027" y="178" font-size="16" font-weight="700">PROTEIN</text><text x="1027" y="215" font-size="27" font-family="monospace">V617F</text><text x="1027" y="242" font-size="14">p.Val617Phe</text>
</g>
<text x="700" y="330" text-anchor="middle" font-family="Arial, sans-serif" font-size="18" font-weight="700">JH2 pseudokinase domain → altered regulatory signaling → MPN molecular context</text>
<text x="700" y="365" text-anchor="middle" font-family="Arial, sans-serif" font-size="13">Educational/research visualization; not a clinical diagnostic interpretation.</text>
</svg>
